<?xml version="1.0" encoding="UTF-8"?>
<svg version="1.1" xmlns="http://www.w3.org/2000/svg" width="656" height="150">
<path d="M0 0 C215.49 0 430.98 0 653 0 C653 45.21 653 90.42 653 137 C437.51 137 222.02 137 0 137 C0 91.79 0 46.58 0 0 Z " fill="#FEFEFE" transform="translate(2,7)"/>
<path d="M0 0 C0.79921875 0.54785156 1.5984375 1.09570312 2.421875 1.66015625 C14.75250887 10.65301509 23.67289222 22.96523936 27 38 C27.29685445 41.56693107 27.33389011 45.10954602 27.3125 48.6875 C27.30686035 49.66630127 27.3012207 50.64510254 27.29541016 51.65356445 C27.01601123 68.31099632 20.90964464 82.11029429 9.05859375 93.9375 C-3.08842164 104.96727522 -18.72182916 111.42531317 -35.1875 111.3125 C-36.42826294 111.30730347 -36.42826294 111.30730347 -37.6940918 111.30200195 C-44.75156072 111.17809063 -51.2529591 110.12107573 -58 108 C-59.175625 107.690625 -60.35125 107.38125 -61.5625 107.0625 C-65.21346139 103.97322498 -65.95508514 100.13273837 -67.23828125 95.6171875 C-67.74463046 93.09492449 -67.74463046 93.09492449 -69 92 C-69.12635423 89.91956287 -69.17581705 87.83423788 -69.1875 85.75 C-69.20167969 84.61046875 -69.21585938 83.4709375 -69.23046875 82.296875 C-68.73117918 75.15449544 -65.33078366 72.00565293 -60.19921875 67.375 C-57.37614259 65.60995061 -55.49898906 65.59949431 -52.1875 65.625 C-50.69283203 65.61339844 -50.69283203 65.61339844 -49.16796875 65.6015625 C-46 66 -46 66 -42.59375 67.4921875 C-34.49361647 70.89072178 -24.60429876 70.05770651 -16.5 66.9375 C-8.41479201 63.03770539 -2.89222783 58.07276884 1 50 C1.5775 48.9275 2.155 47.855 2.75 46.75 C5.54944758 38.35165727 4.30043355 30.08677657 1 22 C-3.18792655 14.08947208 -10.63650189 8.10501127 -19 5 C-27.48896863 2.83785243 -38.0970757 2.43959176 -45.94921875 6.68359375 C-46.62597656 7.11800781 -47.30273438 7.55242188 -48 8 C-49.15435547 8.72896484 -49.15435547 8.72896484 -50.33203125 9.47265625 C-56.70938216 13.94632032 -61.63506889 19.79671718 -63.64453125 27.45703125 C-64.861 36.15946151 -64.33163978 45.52261832 -62 54 C-61.01 54.495 -61.01 54.495 -60 55 C-59.92523438 54.43152344 -59.85046875 53.86304688 -59.7734375 53.27734375 C-58.72139263 47.0991587 -56.94714318 42.96910911 -52 39 C-43.38220503 33.81258943 -35.13847812 30.91000769 -25.0625 30.375 C-24.03672852 30.31699219 -24.03672852 30.31699219 -22.99023438 30.2578125 C-21.32720487 30.16477588 -19.66364153 30.08136213 -18 30 C-19.67688847 40.06133085 -25.89845596 48.51863997 -34.07421875 54.5234375 C-38.78787047 57.6355103 -42.95406138 59.38819627 -48.5 60.5 C-56.09021937 62.02342065 -62.01016562 65.01016562 -67.5 70.5 C-71.57820104 77.29700173 -72.01528068 84.66102404 -70.546875 92.3828125 C-70.06116831 94.26319127 -69.53353469 96.13262858 -69 98 C-69 98.99 -69 99.98 -69 101 C-78.97635725 97.59170713 -85.6040115 88.64503198 -91 80 C-91.51304688 79.21238281 -92.02609375 78.42476563 -92.5546875 77.61328125 C-99.65595319 64.77342517 -99.92280622 47.49025923 -96.875 33.4375 C-91.7752314 16.75798159 -79.53209818 4.12769832 -64.5 -4.1875 C-44.50042081 -13.78427541 -18.170186 -12.77757232 0 0 Z " fill="#5BBC85" transform="translate(113,23)"/>
<path d="M0 0 C7.59 0 15.18 0 23 0 C23.33 16.17 23.66 32.34 24 49 C27.24924659 39.17307776 27.24924659 39.17307776 30.49194336 29.34399414 C30.89550049 28.12832764 31.29905762 26.91266113 31.71484375 25.66015625 C32.12855225 24.40855713 32.54226074 23.15695801 32.96850586 21.86743164 C34 19 34 19 35 18 C36.85369611 17.91262355 38.71067541 17.89301847 40.56640625 17.90234375 C41.69111328 17.90556641 42.81582031 17.90878906 43.97460938 17.91210938 C45.15861328 17.92048828 46.34261719 17.92886719 47.5625 17.9375 C48.75037109 17.94201172 49.93824219 17.94652344 51.16210938 17.95117188 C54.10812226 17.96300325 57.05403681 17.97948713 60 18 C59.64695801 19.02883301 59.29391602 20.05766602 58.93017578 21.11767578 C57.61415736 24.95303473 56.29848313 28.78851167 54.98291016 32.62402344 C54.41464398 34.28063093 53.84628581 35.93720687 53.27783203 37.59375 C52.4584138 39.98168685 51.6393319 42.36973884 50.8203125 44.7578125 C50.56814972 45.49242706 50.31598694 46.22704163 50.05618286 46.98391724 C49.58217589 48.36641272 49.11271394 49.75047751 48.64849854 51.1362915 C48.07545312 52.78315661 47.42388865 54.40224185 46.76123047 56.01513672 C44.83002213 63.58760406 48.12664499 71.05219048 50.5625 78.17578125 C50.9138501 79.22275681 51.2652002 80.26973236 51.62719727 81.34843445 C52.74440318 84.67221818 53.87201482 87.99236088 55 91.3125 C55.75850583 93.56291747 56.5163255 95.81356634 57.2734375 98.06445312 C58.93564882 103.00206146 60.60441077 107.93739832 62.27905273 112.87080383 C62.85742959 114.57894235 63.42971437 116.28914311 64 118 C55.42 118 46.84 118 38 118 C36.6482276 113.82343605 35.29705096 109.64668782 33.94726562 105.46948242 C33.48991137 104.0546628 33.03223997 102.63994564 32.57421875 101.2253418 C31.90797516 99.16743807 31.24295418 97.10914229 30.578125 95.05078125 C29.98112793 93.20480347 29.98112793 93.20480347 29.37207031 91.3215332 C27.54274603 85.55981272 25.77779335 79.7778284 24 74 C23.67 88.52 23.34 103.04 23 118 C15.41 118 7.82 118 0 118 C0 79.06 0 40.12 0 0 Z " fill="#5ABC84" transform="translate(576,15)"/>
<path d="M0 0 C6.72316875 7.21510793 7.72487186 14.97512203 7.67602539 24.59130859 C7.67617142 25.35296326 7.67631744 26.11461792 7.6764679 26.89935303 C7.67577518 29.39907754 7.66801299 31.89872612 7.66015625 34.3984375 C7.65828979 36.13864094 7.65686696 37.87884491 7.65586853 39.61904907 C7.65206131 44.18598903 7.64224642 48.75289689 7.63116455 53.31982422 C7.62091177 57.98534715 7.61636264 62.65087529 7.61132812 67.31640625 C7.60062247 76.46095383 7.58304028 85.60546922 7.5625 94.75 C-0.3575 94.75 -8.2775 94.75 -16.4375 94.75 C-16.9325 90.79 -16.9325 90.79 -17.4375 86.75 C-17.82421875 87.23210937 -18.2109375 87.71421875 -18.609375 88.2109375 C-19.13015625 88.84257813 -19.6509375 89.47421875 -20.1875 90.125 C-20.69796875 90.75148438 -21.2084375 91.37796875 -21.734375 92.0234375 C-24.88735019 95.21980225 -27.75655393 96.05444353 -32.1875 96.125 C-37.32998103 95.9735278 -41.48979514 95.20643492 -45.4375 91.75 C-50.78036199 83.74899772 -51.65666509 76.49582527 -51.75 67.125 C-51.77900391 66.17753906 -51.80800781 65.23007813 -51.83789062 64.25390625 C-51.90948347 56.20246461 -50.21701699 49.42877248 -45.3125 42.9375 C-37.05137511 36.65186149 -27.21455906 33.81347851 -17.4375 30.75 C-16.95009428 21.987937 -16.95009428 21.987937 -19.4375 13.75 C-21.46993548 12.78122943 -21.46993548 12.78122943 -23.4375 12.75 C-26.47098426 17.10239046 -26.61393145 18.98502014 -27.4375 24.75 C-35.0275 24.75 -42.6175 24.75 -50.4375 24.75 C-50.4375 7.88513514 -50.4375 7.88513514 -44.4375 0.75 C-32.98221678 -9.98932802 -12.22551192 -8.99383047 0 0 Z " fill="#5ABC84" transform="translate(507.4375,38.25)"/>
<path d="M0 0 C42.07538803 0 42.07538803 0 48.3046875 4.76171875 C58.51483403 17.28311735 58.01207582 32.49345414 57 48 C55.96365828 55.68240961 53.24936069 63.11493637 47 68 C38.97466069 72.60713923 33.09621154 71 23 71 C23 86.18 23 101.36 23 117 C15.41 117 7.82 117 0 117 C0 78.39 0 39.78 0 0 Z " fill="#5ABC84" transform="translate(391,16)"/>
<path d="M0 0 C5.56677418 5.45099772 7.34459567 12.69986678 7.56336975 20.3321991 C7.58856399 23.78688456 7.5203424 27.23359518 7.4375 30.6875 C7.355 35.575625 7.2725 40.46375 7.1875 45.5 C-3.7025 45.5 -14.5925 45.5 -25.8125 45.5 C-25.668125 49.74875 -25.52375 53.9975 -25.375 58.375 C-25.33189697 59.7141748 -25.28879395 61.05334961 -25.24438477 62.43310547 C-25.1872229 64.00922607 -25.1872229 64.00922607 -25.12890625 65.6171875 C-25.09224854 66.69597168 -25.05559082 67.77475586 -25.01782227 68.88623047 C-24.97873357 71.48069536 -24.97873357 71.48069536 -23.8125 73.5 C-21.81295254 73.54254356 -19.81208364 73.54080783 -17.8125 73.5 C-16.29828999 71.98578999 -16.59940144 70.57527232 -16.49609375 68.46484375 C-16.45798584 67.73644287 -16.41987793 67.00804199 -16.38061523 66.25756836 C-16.33751221 65.3269458 -16.29440918 64.39632324 -16.25 63.4375 C-16.105625 60.488125 -15.96125 57.53875 -15.8125 54.5 C-8.2225 54.5 -0.6325 54.5 7.1875 54.5 C7.78822874 76.32647738 7.78822874 76.32647738 1.1875 84.9375 C-4.96935242 91.19718085 -12.39355548 92.70708078 -20.9375 92.9375 C-29.3373437 92.65291513 -36.04288002 91.13817891 -42.30859375 85.30859375 C-47.34231608 79.25505235 -48.90858109 71.73468525 -48.98950195 64.04223633 C-49.00233719 62.97374954 -49.01517242 61.90526276 -49.02839661 60.80439758 C-49.03578354 59.65851669 -49.04317047 58.5126358 -49.05078125 57.33203125 C-49.058853 56.14204025 -49.06692474 54.95204926 -49.07524109 53.72599792 C-49.08905894 51.20854133 -49.09979135 48.69106618 -49.10766602 46.17358398 C-49.11918207 43.60842369 -49.13962767 41.04328728 -49.16918945 38.47827148 C-49.21200172 34.76269315 -49.22805508 31.04782607 -49.23828125 27.33203125 C-49.25578934 26.19627151 -49.27329742 25.06051178 -49.29133606 23.89033508 C-49.26988327 15.93969497 -48.29454297 8.60634356 -42.99531555 2.35700989 C-32.10549334 -8.45266238 -12.19690872 -8.90322873 0 0 Z " fill="#000000" transform="translate(378.8125,37.5)"/>
<path d="M0 0 C5.56677418 5.45099772 7.34459567 12.69986678 7.56336975 20.3321991 C7.58856399 23.78688456 7.5203424 27.23359518 7.4375 30.6875 C7.355 35.575625 7.2725 40.46375 7.1875 45.5 C-3.7025 45.5 -14.5925 45.5 -25.8125 45.5 C-25.668125 49.74875 -25.52375 53.9975 -25.375 58.375 C-25.33189697 59.7141748 -25.28879395 61.05334961 -25.24438477 62.43310547 C-25.1872229 64.00922607 -25.1872229 64.00922607 -25.12890625 65.6171875 C-25.09224854 66.69597168 -25.05559082 67.77475586 -25.01782227 68.88623047 C-24.97873357 71.48069536 -24.97873357 71.48069536 -23.8125 73.5 C-21.81295254 73.54254356 -19.81208364 73.54080783 -17.8125 73.5 C-16.29828999 71.98578999 -16.59940144 70.57527232 -16.49609375 68.46484375 C-16.45798584 67.73644287 -16.41987793 67.00804199 -16.38061523 66.25756836 C-16.33751221 65.3269458 -16.29440918 64.39632324 -16.25 63.4375 C-16.105625 60.488125 -15.96125 57.53875 -15.8125 54.5 C-8.2225 54.5 -0.6325 54.5 7.1875 54.5 C7.78822874 76.32647738 7.78822874 76.32647738 1.1875 84.9375 C-4.96935242 91.19718085 -12.39355548 92.70708078 -20.9375 92.9375 C-29.3373437 92.65291513 -36.04288002 91.13817891 -42.30859375 85.30859375 C-47.34231608 79.25505235 -48.90858109 71.73468525 -48.98950195 64.04223633 C-49.00233719 62.97374954 -49.01517242 61.90526276 -49.02839661 60.80439758 C-49.03578354 59.65851669 -49.04317047 58.5126358 -49.05078125 57.33203125 C-49.058853 56.14204025 -49.06692474 54.95204926 -49.07524109 53.72599792 C-49.08905894 51.20854133 -49.09979135 48.69106618 -49.10766602 46.17358398 C-49.11918207 43.60842369 -49.13962767 41.04328728 -49.16918945 38.47827148 C-49.21200172 34.76269315 -49.22805508 31.04782607 -49.23828125 27.33203125 C-49.25578934 26.19627151 -49.27329742 25.06051178 -49.29133606 23.89033508 C-49.26988327 15.93969497 -48.29454297 8.60634356 -42.99531555 2.35700989 C-32.10549334 -8.45266238 -12.19690872 -8.90322873 0 0 Z " fill="#000000" transform="translate(312.8125,37.5)"/>
<path d="M0 0 C8.81766501 6.51804141 14.70893843 13.49460403 16.6015625 24.48828125 C17.75620777 35.07802784 14.65451585 43.05563376 8.0390625 51.30078125 C2.28232573 57.42006061 -6.48158465 62.20669937 -14.9453125 62.69140625 C-16.34628049 62.71263304 -17.74734603 62.7280543 -19.1484375 62.73828125 C-19.839375 62.75890625 -20.5303125 62.77953125 -21.2421875 62.80078125 C-26.31420684 62.83891673 -29.72477439 61.58898697 -34.3984375 59.48828125 C-40.00703041 58.70321969 -44.8424703 58.72394648 -49.9609375 61.23828125 C-54.48174993 65.41133887 -56.2207487 68.32707345 -56.56640625 74.4765625 C-56.7070039 81.64684381 -56.7070039 81.64684381 -55.2734375 88.61328125 C-54.9846875 89.56203125 -54.6959375 90.51078125 -54.3984375 91.48828125 C-55.0584375 92.47828125 -55.7184375 93.46828125 -56.3984375 94.48828125 C-57.0584375 94.15828125 -57.7184375 93.82828125 -58.3984375 93.48828125 C-58.77734375 91.4921875 -58.77734375 91.4921875 -58.9609375 89.05078125 C-59.204555 85.6419992 -59.204555 85.6419992 -60.3984375 82.48828125 C-61.16752645 75.11259211 -60.56106582 68.75053441 -56.3984375 62.48828125 C-51.02673091 56.54428631 -45.05618131 53.78556484 -37.2734375 52.23828125 C-26.07681763 49.71330319 -18.46535068 44.86644313 -12.21801758 35.34741211 C-9.65503477 31.20192452 -7.77048283 27.15323539 -6.3984375 22.48828125 C-8.75359318 22.77320356 -11.10733184 23.06603039 -13.4609375 23.36328125 C-14.44610352 23.48123047 -14.44610352 23.48123047 -15.45117188 23.6015625 C-25.08467174 24.83540977 -36.66574381 27.88596503 -43.4609375 35.30078125 C-45.83576299 39.20775222 -47.19760637 43.09499663 -48.3984375 47.48828125 C-49.3884375 47.15828125 -50.3784375 46.82828125 -51.3984375 46.48828125 C-53.79881837 34.40064902 -55.80600373 22.07171971 -48.921875 11.14453125 C-37.60386013 -4.35959871 -17.27594413 -10.88890941 0 0 Z " fill="#FAFDFB" transform="translate(101.3984375,30.51171875)"/>
<path d="M0 0 C16.17 0 32.34 0 49 0 C49 7.26 49 14.52 49 22 C44.71 22 40.42 22 36 22 C36 52.03 36 82.06 36 113 C28.74 113 21.48 113 14 113 C14 82.97 14 52.94 14 22 C9.38 22 4.76 22 0 22 C0 14.74 0 7.48 0 0 Z " fill="#000000" transform="translate(159,16)"/>
<path d="M0 0 C0 6.6 0 13.2 0 20 C-5.61 20.99 -11.22 21.98 -17 23 C-17 48.74 -17 74.48 -17 101 C-24.92 101 -32.84 101 -41 101 C-41 68 -41 35 -41 1 C-33.08 1 -25.16 1 -17 1 C-16.67 3.31 -16.34 5.62 -16 8 C-15.484375 7.236875 -14.96875 6.47375 -14.4375 5.6875 C-10.19453156 1.00935531 -6.21023938 0 0 0 Z " fill="#5ABC84" transform="translate(568,32)"/>
<path d="M0 0 C0 6.27 0 12.54 0 19 C-3.58072917 19.74869792 -7.16145833 20.49739583 -10.7421875 21.24609375 C-13.86460244 21.8347826 -13.86460244 21.8347826 -16 23 C-16.33 47.42 -16.66 71.84 -17 97 C-24.26 97 -31.52 97 -39 97 C-39 65.32 -39 33.64 -39 1 C-31.74 1 -24.48 1 -17 1 C-16.67 3.64 -16.34 6.28 -16 9 C-15.62488281 8.51789062 -15.24976563 8.03578125 -14.86328125 7.5390625 C-10.22946364 1.81974102 -7.60768786 0 0 0 Z " fill="#000000" transform="translate(256,32)"/>
<path d="M0 0 C0.09889302 4.50229474 0.17147709 9.00395727 0.21972656 13.50708008 C0.2398398 15.03876762 0.2671345 16.57037839 0.30175781 18.10180664 C0.35029315 20.30374073 0.37296996 22.50465982 0.390625 24.70703125 C0.41127014 25.39150833 0.43191528 26.07598541 0.45318604 26.78120422 C0.45470426 29.99950272 0.37871257 31.59304834 -1.85644531 33.99487305 C-4 35 -4 35 -6.6875 34.375 C-9 33 -9 33 -10 30 C-10.25424949 26.54605916 -10.23128473 23.08732577 -10.25 19.625 C-10.270625 18.67882812 -10.29125 17.73265625 -10.3125 16.7578125 C-10.36143103 8.04808915 -10.36143103 8.04808915 -7 4 C-2.56756757 0 -2.56756757 0 0 0 Z " fill="#FFFFFF" transform="translate(490,81)"/>
<path d="M0 0 C6 0 6 0 8.3125 1.8125 C11.38227878 5.79184287 11.19204067 9.4294265 11.25 14.3125 C11.27578125 15.60800781 11.3015625 16.90351562 11.328125 18.23828125 C10.98001565 22.2291063 10.10699629 24.61960061 8 28 C6 29 6 29 0 29 C0 19.43 0 9.86 0 0 Z " fill="#FFFFFF" transform="translate(414,37)"/>
<path d="M0 0 C2.375 0.3125 2.375 0.3125 5 1 C7.10209857 4.15314785 7.2434761 4.86103081 7.1953125 8.44921875 C7.18564453 9.72055664 7.18564453 9.72055664 7.17578125 11.01757812 C7.15902344 11.89865234 7.14226562 12.77972656 7.125 13.6875 C7.11597656 14.58017578 7.10695313 15.47285156 7.09765625 16.39257812 C7.07409915 18.59516666 7.03822844 20.79761725 7 23 C3.7 23 0.4 23 -3 23 C-3.08099635 19.91613896 -3.14049524 16.83440789 -3.1875 13.75 C-3.21263672 12.87730469 -3.23777344 12.00460938 -3.26367188 11.10546875 C-3.33834499 4.58401668 -3.33834499 4.58401668 -1.48828125 1.390625 C-0.99714844 0.93171875 -0.50601562 0.4728125 0 0 Z " fill="#FFFFFF" transform="translate(356,49)"/>
<path d="M0 0 C2.375 0.3125 2.375 0.3125 5 1 C7.10209857 4.15314785 7.2434761 4.86103081 7.1953125 8.44921875 C7.18564453 9.72055664 7.18564453 9.72055664 7.17578125 11.01757812 C7.15902344 11.89865234 7.14226562 12.77972656 7.125 13.6875 C7.11597656 14.58017578 7.10695313 15.47285156 7.09765625 16.39257812 C7.07409915 18.59516666 7.03822844 20.79761725 7 23 C3.7 23 0.4 23 -3 23 C-3.08099635 19.91613896 -3.14049524 16.83440789 -3.1875 13.75 C-3.21263672 12.87730469 -3.23777344 12.00460938 -3.26367188 11.10546875 C-3.33834499 4.58401668 -3.33834499 4.58401668 -1.48828125 1.390625 C-0.99714844 0.93171875 -0.50601562 0.4728125 0 0 Z " fill="#FFFFFF" transform="translate(290,49)"/>
<path d="M0 0 C0.66 0.33 1.32 0.66 2 1 C1.38125 1.495 0.7625 1.99 0.125 2.5 C-5.27800418 8.85647551 -4.54311554 18.10470932 -4 26 C-3.52595643 28.22825103 -3.52595643 28.22825103 -2.875 30.125 C-2.58625 31.07375 -2.2975 32.0225 -2 33 C-2.66 33.99 -3.32 34.98 -4 36 C-4.66 35.67 -5.32 35.34 -6 35 C-6.37890625 33.00390625 -6.37890625 33.00390625 -6.5625 30.5625 C-6.8061175 27.15371795 -6.8061175 27.15371795 -8 24 C-8.77928432 16.52653563 -7.95739191 10.44413143 -4 4 C-1.75 1.4375 -1.75 1.4375 0 0 Z " fill="#DDF0E5" transform="translate(49,89)"/>
<path d="M0 0 C0.66 0.33 1.32 0.66 2 1 C1.38125 1.495 0.7625 1.99 0.125 2.5 C-2.01218087 5.01433043 -2.43444874 6.0855883 -3.125 9.1875 C-3.41375 10.445625 -3.7025 11.70375 -4 13 C-4.99 13.495 -4.99 13.495 -6 14 C-6.46751788 16.35599235 -6.46751788 16.35599235 -6.625 19.0625 C-6.69976562 19.98160156 -6.77453125 20.90070313 -6.8515625 21.84765625 C-6.90054688 22.55792969 -6.94953125 23.26820312 -7 24 C-7.33 24 -7.66 24 -8 24 C-8.50909635 16.43426257 -8.02484733 10.55397438 -4 4 C-1.75 1.4375 -1.75 1.4375 0 0 Z " fill="#CCE9D8" transform="translate(49,89)"/>
<path d="M0 0 C-0.33 1.98 -0.66 3.96 -1 6 C-1.33 4.68 -1.66 3.36 -2 2 C-6.29 2 -10.58 2 -15 2 C-15 1.67 -15 1.34 -15 1 C-13.43784452 0.83013455 -11.8752548 0.66426036 -10.3125 0.5 C-9.44238281 0.4071875 -8.57226562 0.314375 -7.67578125 0.21875 C-5.10276661 0.00840136 -2.58015636 -0.03719144 0 0 Z " fill="#A0D8B7" transform="translate(95,53)"/>
<path d="M0 0 C0.66 0.33 1.32 0.66 2 1 C-0.10148204 4.98175544 -2.36905358 7.35039045 -6 10 C-5.49477778 5.62140745 -2.82172778 3.18348776 0 0 Z " fill="#E7F4EC" transform="translate(52,87)"/>
<path d="M0 0 C0.66 0.99 1.32 1.98 2 3 C0.625 4.5 0.625 4.5 -1 6 C-1.66 6 -2.32 6 -3 6 C-3.33 6.99 -3.66 7.98 -4 9 C-3.46930939 5.17902761 -2.50298434 2.93828597 0 0 Z " fill="#6CC391" transform="translate(49,93)"/>
</svg>
